<?xml version="1.0" standalone="no"?>
<!DOCTYPE svg PUBLIC "-//W3C//DTD SVG 20010904//EN"
 "http://www.w3.org/TR/2001/REC-SVG-20010904/DTD/svg10.dtd">
<svg version="1.0" xmlns="http://www.w3.org/2000/svg"
 width="512.000000pt" height="512.000000pt" viewBox="0 0 512.000000 512.000000"
 preserveAspectRatio="xMidYMid meet">

<g transform="translate(0.000000,512.000000) scale(0.100000,-0.100000)"
fill="#000000" stroke="none">
<path d="M2120 4779 c-393 -19 -683 -63 -822 -126 -102 -45 -98 -32 -98 -363
l0 -288 33 -28 c19 -16 42 -34 51 -39 16 -9 -8 -60 -213 -465 -127 -250 -238
-475 -246 -499 -31 -89 -36 -241 -33 -1126 l3 -880 28 -80 c92 -260 262 -419
518 -484 235 -60 935 -86 1659 -61 654 23 746 35 930 127 79 39 110 62 185
138 74 73 99 106 133 175 81 166 76 107 80 1010 3 814 -3 1038 -33 1198 -12
65 -49 146 -229 515 l-215 439 35 30 34 30 0 287 c0 244 -2 290 -16 309 -32
47 -168 97 -344 127 -319 55 -934 78 -1440 54z m990 -110 c273 -19 573 -63
665 -99 28 -11 29 -12 11 -25 -38 -28 -271 -72 -501 -94 -337 -33 -990 -39
-1325 -11 -358 29 -667 87 -634 120 27 27 318 79 564 100 333 29 874 33 1220
9z m-1662 -473 c1 -113 -1 -206 -6 -206 -18 0 -118 33 -129 42 -10 8 -13 63
-13 213 l0 203 73 -23 72 -23 3 -206z m2360 -162 c-15 -14 -104 -44 -130 -44
-17 0 -18 13 -18 204 l0 204 78 24 77 24 3 -200 c2 -152 -1 -203 -10 -212z
m-2135 329 c4 -2 7 -96 7 -209 l0 -205 -57 7 c-32 3 -61 8 -65 11 -5 2 -8 96
-8 209 l0 205 58 -7 c31 -3 60 -8 65 -11z m1887 -193 c0 -198 -1 -210 -19
-210 -10 0 -39 -3 -65 -6 l-46 -7 0 206 c0 231 -7 208 70 220 65 11 60 28 60
-203z m-1686 174 l46 -7 0 -210 0 -209 -22 6 c-13 3 -42 6 -65 6 l-43 0 0 210
c0 237 -8 216 84 204z m1454 -201 l-3 -208 -60 -6 c-33 -4 -63 -5 -67 -2 -5 2
-8 96 -8 208 l0 204 38 4 c20 2 52 4 70 5 l32 2 -2 -207z m-1178 -23 l0 -211
-62 3 -63 3 -3 208 -2 207 65 0 65 0 0 -210z m940 0 l0 -210 -65 0 -65 0 0
210 0 210 65 0 65 0 0 -210z m-700 -10 l0 -210 -65 0 -65 0 0 210 0 210 65 0
65 0 0 -210z m230 0 l0 -210 -65 0 -65 0 0 210 0 210 65 0 65 0 0 -210z m238
3 l-3 -208 -62 -3 -63 -3 0 211 0 210 65 0 65 0 -2 -207z m1114 -648 c177
-362 212 -442 224 -505 26 -145 35 -485 32 -1225 l-3 -730 -24 -70 c-37 -112
-81 -185 -157 -262 -116 -116 -269 -180 -484 -202 -302 -31 -1390 -45 -1730
-22 -389 26 -521 53 -649 128 -88 53 -171 144 -221 245 -74 150 -72 121 -68
1133 4 791 6 907 21 955 14 49 466 952 486 973 5 5 55 -1 112 -12 138 -26 338
-47 589 -62 261 -15 931 -6 1160 15 163 16 377 48 435 65 17 6 38 9 48 8 13
-2 74 -116 229 -432z"/>
</g>
</svg>
